<?xml version="1.0" encoding="UTF-8" standalone="no"?>
<!DOCTYPE svg PUBLIC "-//W3C//DTD SVG 1.1//EN"
 "http://www.w3.org/Graphics/SVG/1.1/DTD/svg11.dtd">
<!-- Generated by graphviz version 2.43.0 (0)
 -->
<!-- Title: %3 Pages: 1 -->
<svg width="980pt" height="476pt"
 viewBox="0.00 0.00 980.21 476.00" xmlns="http://www.w3.org/2000/svg" xmlns:xlink="http://www.w3.org/1999/xlink">
<g id="graph0" class="graph" transform="scale(1 1) rotate(0) translate(4 472)">
<title>%3</title>
<polygon fill="white" stroke="transparent" points="-4,4 -4,-472 976.21,-472 976.21,4 -4,4"/>
<!-- [root] aws_instance.public_instance (expand) -->
<g id="node1" class="node">
<title>[root] aws_instance.public_instance (expand)</title>
<polygon fill="none" stroke="black" points="694.82,-324 468.82,-324 468.82,-288 694.82,-288 694.82,-324"/>
<text text-anchor="middle" x="581.82" y="-302.3" font-family="Times,serif" font-size="14.00">aws_instance.public_instance</text>
</g>
<!-- [root] aws_subnet.public_subnet (expand) -->
<g id="node3" class="node">
<title>[root] aws_subnet.public_subnet (expand)</title>
<polygon fill="none" stroke="black" points="618.32,-252 415.32,-252 415.32,-216 618.32,-216 618.32,-252"/>
<text text-anchor="middle" x="516.82" y="-230.3" font-family="Times,serif" font-size="14.00">aws_subnet.public_subnet</text>
</g>
<!-- [root] aws_instance.public_instance (expand)&#45;&gt;[root] aws_subnet.public_subnet (expand) -->
<g id="edge1" class="edge">
<title>[root] aws_instance.public_instance (expand)&#45;&gt;[root] aws_subnet.public_subnet (expand)</title>
<path fill="none" stroke="black" d="M565.76,-287.7C557.89,-279.22 548.27,-268.86 539.65,-259.58"/>
<polygon fill="black" stroke="black" points="542.08,-257.05 532.71,-252.1 536.95,-261.81 542.08,-257.05"/>
</g>
<!-- [root] data.aws_key_pair.key (expand) -->
<g id="node5" class="node">
<title>[root] data.aws_key_pair.key (expand)</title>
<polygon fill="none" stroke="black" points="734.32,-180 559.32,-180 559.32,-144 734.32,-144 734.32,-180"/>
<text text-anchor="middle" x="646.82" y="-158.3" font-family="Times,serif" font-size="14.00">data.aws_key_pair.key</text>
</g>
<!-- [root] aws_instance.public_instance (expand)&#45;&gt;[root] data.aws_key_pair.key (expand) -->
<g id="edge2" class="edge">
<title>[root] aws_instance.public_instance (expand)&#45;&gt;[root] data.aws_key_pair.key (expand)</title>
<path fill="none" stroke="black" d="M600.99,-287.57C610.43,-277.96 621.19,-265.3 627.82,-252 637.49,-232.62 642.25,-208.47 644.59,-190.22"/>
<polygon fill="black" stroke="black" points="648.07,-190.56 645.71,-180.24 641.12,-189.79 648.07,-190.56"/>
</g>
<!-- [root] aws_subnet.private_subnet (expand) -->
<g id="node2" class="node">
<title>[root] aws_subnet.private_subnet (expand)</title>
<polygon fill="none" stroke="black" points="397.32,-252 186.32,-252 186.32,-216 397.32,-216 397.32,-252"/>
<text text-anchor="middle" x="291.82" y="-230.3" font-family="Times,serif" font-size="14.00">aws_subnet.private_subnet</text>
</g>
<!-- [root] aws_vpc.vpc&#45;virginia (expand) -->
<g id="node4" class="node">
<title>[root] aws_vpc.vpc&#45;virginia (expand)</title>
<polygon fill="none" stroke="black" points="398.82,-180 234.82,-180 234.82,-144 398.82,-144 398.82,-180"/>
<text text-anchor="middle" x="316.82" y="-158.3" font-family="Times,serif" font-size="14.00">aws_vpc.vpc&#45;virginia</text>
</g>
<!-- [root] aws_subnet.private_subnet (expand)&#45;&gt;[root] aws_vpc.vpc&#45;virginia (expand) -->
<g id="edge3" class="edge">
<title>[root] aws_subnet.private_subnet (expand)&#45;&gt;[root] aws_vpc.vpc&#45;virginia (expand)</title>
<path fill="none" stroke="black" d="M298,-215.7C300.82,-207.81 304.22,-198.3 307.34,-189.55"/>
<polygon fill="black" stroke="black" points="310.65,-190.7 310.72,-180.1 304.06,-188.34 310.65,-190.7"/>
</g>
<!-- [root] var.subnets -->
<g id="node7" class="node">
<title>[root] var.subnets</title>
<polygon fill="none" stroke="black" points="523.32,-180 430.32,-180 430.32,-144 529.32,-144 529.32,-174 523.32,-180"/>
<polyline fill="none" stroke="black" points="523.32,-180 523.32,-174 "/>
<polyline fill="none" stroke="black" points="529.32,-174 523.32,-174 "/>
<text text-anchor="middle" x="479.82" y="-158.3" font-family="Times,serif" font-size="14.00">var.subnets</text>
</g>
<!-- [root] aws_subnet.private_subnet (expand)&#45;&gt;[root] var.subnets -->
<g id="edge4" class="edge">
<title>[root] aws_subnet.private_subnet (expand)&#45;&gt;[root] var.subnets</title>
<path fill="none" stroke="black" d="M337.81,-215.88C363.97,-206.14 396.91,-193.87 424.48,-183.61"/>
<polygon fill="black" stroke="black" points="425.83,-186.84 433.98,-180.07 423.39,-180.28 425.83,-186.84"/>
</g>
<!-- [root] aws_subnet.public_subnet (expand)&#45;&gt;[root] aws_vpc.vpc&#45;virginia (expand) -->
<g id="edge5" class="edge">
<title>[root] aws_subnet.public_subnet (expand)&#45;&gt;[root] aws_vpc.vpc&#45;virginia (expand)</title>
<path fill="none" stroke="black" d="M468.15,-215.97C440.21,-206.19 404.93,-193.84 375.46,-183.52"/>
<polygon fill="black" stroke="black" points="376.31,-180.11 365.71,-180.11 373.99,-186.72 376.31,-180.11"/>
</g>
<!-- [root] aws_subnet.public_subnet (expand)&#45;&gt;[root] var.subnets -->
<g id="edge6" class="edge">
<title>[root] aws_subnet.public_subnet (expand)&#45;&gt;[root] var.subnets</title>
<path fill="none" stroke="black" d="M507.68,-215.7C503.42,-207.64 498.27,-197.89 493.56,-188.98"/>
<polygon fill="black" stroke="black" points="496.63,-187.31 488.86,-180.1 490.44,-190.58 496.63,-187.31"/>
</g>
<!-- [root] provider[&quot;registry.terraform.io/hashicorp/aws&quot;] -->
<g id="node6" class="node">
<title>[root] provider[&quot;registry.terraform.io/hashicorp/aws&quot;]</title>
<polygon fill="none" stroke="black" points="646.82,-108 321.56,-90 646.82,-72 972.09,-90 646.82,-108"/>
<text text-anchor="middle" x="646.82" y="-86.3" font-family="Times,serif" font-size="14.00">provider[&quot;registry.terraform.io/hashicorp/aws&quot;]</text>
</g>
<!-- [root] aws_vpc.vpc&#45;virginia (expand)&#45;&gt;[root] provider[&quot;registry.terraform.io/hashicorp/aws&quot;] -->
<g id="edge7" class="edge">
<title>[root] aws_vpc.vpc&#45;virginia (expand)&#45;&gt;[root] provider[&quot;registry.terraform.io/hashicorp/aws&quot;]</title>
<path fill="none" stroke="black" d="M397.13,-143.97C450.81,-132.58 520.9,-117.71 573.15,-106.63"/>
<polygon fill="black" stroke="black" points="573.96,-110.03 583.02,-104.53 572.51,-103.19 573.96,-110.03"/>
</g>
<!-- [root] var.virginia_cidr -->
<g id="node9" class="node">
<title>[root] var.virginia_cidr</title>
<polygon fill="none" stroke="black" points="297.82,-108 171.82,-108 171.82,-72 303.82,-72 303.82,-102 297.82,-108"/>
<polyline fill="none" stroke="black" points="297.82,-108 297.82,-102 "/>
<polyline fill="none" stroke="black" points="303.82,-102 297.82,-102 "/>
<text text-anchor="middle" x="237.82" y="-86.3" font-family="Times,serif" font-size="14.00">var.virginia_cidr</text>
</g>
<!-- [root] aws_vpc.vpc&#45;virginia (expand)&#45;&gt;[root] var.virginia_cidr -->
<g id="edge8" class="edge">
<title>[root] aws_vpc.vpc&#45;virginia (expand)&#45;&gt;[root] var.virginia_cidr</title>
<path fill="none" stroke="black" d="M297.3,-143.7C287.44,-134.97 275.34,-124.24 264.63,-114.75"/>
<polygon fill="black" stroke="black" points="266.93,-112.12 257.13,-108.1 262.29,-117.36 266.93,-112.12"/>
</g>
<!-- [root] data.aws_key_pair.key (expand)&#45;&gt;[root] provider[&quot;registry.terraform.io/hashicorp/aws&quot;] -->
<g id="edge9" class="edge">
<title>[root] data.aws_key_pair.key (expand)&#45;&gt;[root] provider[&quot;registry.terraform.io/hashicorp/aws&quot;]</title>
<path fill="none" stroke="black" d="M646.82,-143.7C646.82,-135.98 646.82,-126.71 646.82,-118.11"/>
<polygon fill="black" stroke="black" points="650.32,-118.1 646.82,-108.1 643.32,-118.1 650.32,-118.1"/>
</g>
<!-- [root] var.tags -->
<g id="node8" class="node">
<title>[root] var.tags</title>
<polygon fill="none" stroke="black" points="677.82,-36 609.82,-36 609.82,0 683.82,0 683.82,-30 677.82,-36"/>
<polyline fill="none" stroke="black" points="677.82,-36 677.82,-30 "/>
<polyline fill="none" stroke="black" points="683.82,-30 677.82,-30 "/>
<text text-anchor="middle" x="646.82" y="-14.3" font-family="Times,serif" font-size="14.00">var.tags</text>
</g>
<!-- [root] provider[&quot;registry.terraform.io/hashicorp/aws&quot;]&#45;&gt;[root] var.tags -->
<g id="edge13" class="edge">
<title>[root] provider[&quot;registry.terraform.io/hashicorp/aws&quot;]&#45;&gt;[root] var.tags</title>
<path fill="none" stroke="black" d="M646.82,-71.7C646.82,-63.98 646.82,-54.71 646.82,-46.11"/>
<polygon fill="black" stroke="black" points="650.32,-46.1 646.82,-36.1 643.32,-46.1 650.32,-46.1"/>
</g>
<!-- [root] output.ec2_public_ip (expand) -->
<g id="node10" class="node">
<title>[root] output.ec2_public_ip (expand)</title>
<ellipse fill="none" stroke="black" cx="780.82" cy="-378" rx="178.97" ry="18"/>
<text text-anchor="middle" x="780.82" y="-374.3" font-family="Times,serif" font-size="14.00">[root] output.ec2_public_ip (expand)</text>
</g>
<!-- [root] output.ec2_public_ip (expand)&#45;&gt;[root] aws_instance.public_instance (expand) -->
<g id="edge10" class="edge">
<title>[root] output.ec2_public_ip (expand)&#45;&gt;[root] aws_instance.public_instance (expand)</title>
<path fill="none" stroke="black" d="M734.17,-360.59C705.97,-350.67 669.8,-337.95 639.78,-327.39"/>
<polygon fill="black" stroke="black" points="640.86,-324.06 630.27,-324.04 638.54,-330.66 640.86,-324.06"/>
</g>
<!-- [root] provider[&quot;registry.terraform.io/hashicorp/aws&quot;] (close) -->
<g id="node11" class="node">
<title>[root] provider[&quot;registry.terraform.io/hashicorp/aws&quot;] (close)</title>
<ellipse fill="none" stroke="black" cx="291.82" cy="-378" rx="291.65" ry="18"/>
<text text-anchor="middle" x="291.82" y="-374.3" font-family="Times,serif" font-size="14.00">[root] provider[&quot;registry.terraform.io/hashicorp/aws&quot;] (close)</text>
</g>
<!-- [root] provider[&quot;registry.terraform.io/hashicorp/aws&quot;] (close)&#45;&gt;[root] aws_instance.public_instance (expand) -->
<g id="edge11" class="edge">
<title>[root] provider[&quot;registry.terraform.io/hashicorp/aws&quot;] (close)&#45;&gt;[root] aws_instance.public_instance (expand)</title>
<path fill="none" stroke="black" d="M360.18,-360.5C402.45,-350.3 456.91,-337.15 501.27,-326.44"/>
<polygon fill="black" stroke="black" points="502.25,-329.81 511.15,-324.06 500.61,-323 502.25,-329.81"/>
</g>
<!-- [root] provider[&quot;registry.terraform.io/hashicorp/aws&quot;] (close)&#45;&gt;[root] aws_subnet.private_subnet (expand) -->
<g id="edge12" class="edge">
<title>[root] provider[&quot;registry.terraform.io/hashicorp/aws&quot;] (close)&#45;&gt;[root] aws_subnet.private_subnet (expand)</title>
<path fill="none" stroke="black" d="M291.82,-359.87C291.82,-335.67 291.82,-291.21 291.82,-262.39"/>
<polygon fill="black" stroke="black" points="295.32,-262.19 291.82,-252.19 288.32,-262.19 295.32,-262.19"/>
</g>
<!-- [root] root -->
<g id="node12" class="node">
<title>[root] root</title>
<ellipse fill="none" stroke="black" cx="535.82" cy="-450" rx="58.49" ry="18"/>
<text text-anchor="middle" x="535.82" y="-446.3" font-family="Times,serif" font-size="14.00">[root] root</text>
</g>
<!-- [root] root&#45;&gt;[root] output.ec2_public_ip (expand) -->
<g id="edge14" class="edge">
<title>[root] root&#45;&gt;[root] output.ec2_public_ip (expand)</title>
<path fill="none" stroke="black" d="M577.11,-437.2C614.64,-426.48 670.67,-410.47 714.48,-397.96"/>
<polygon fill="black" stroke="black" points="715.54,-401.29 724.2,-395.18 713.62,-394.56 715.54,-401.29"/>
</g>
<!-- [root] root&#45;&gt;[root] provider[&quot;registry.terraform.io/hashicorp/aws&quot;] (close) -->
<g id="edge15" class="edge">
<title>[root] root&#45;&gt;[root] provider[&quot;registry.terraform.io/hashicorp/aws&quot;] (close)</title>
<path fill="none" stroke="black" d="M494.43,-437.13C457.6,-426.56 403.02,-410.9 359.79,-398.5"/>
<polygon fill="black" stroke="black" points="360.49,-395.06 349.91,-395.66 358.56,-401.79 360.49,-395.06"/>
</g>
</g>
</svg>
